<mxfile host="app.diagrams.net" modified="2024-05-15T08:28:51.609Z" agent="Mozilla/5.0 (Windows NT 10.0; Win64; x64) AppleWebKit/537.36 (KHTML, like Gecko) Chrome/124.0.0.0 Safari/537.36 Edg/124.0.0.0" etag="YO61HxbPnL3MdWp8pyyh" version="24.4.0" type="github">
  <diagram name="第 1 页" id="bq2ZJhgOoojInpez_peC">
    <mxGraphModel dx="1166" dy="738" grid="1" gridSize="10" guides="1" tooltips="1" connect="1" arrows="1" fold="1" page="1" pageScale="1" pageWidth="827" pageHeight="1169" math="0" shadow="0">
      <root>
        <mxCell id="0" />
        <mxCell id="1" parent="0" />
        <mxCell id="bA4vEmtvU-r9QhQ8lOBh-6" value="" style="edgeStyle=orthogonalEdgeStyle;rounded=0;orthogonalLoop=1;jettySize=auto;html=1;" edge="1" parent="1" source="bA4vEmtvU-r9QhQ8lOBh-2" target="bA4vEmtvU-r9QhQ8lOBh-5">
          <mxGeometry relative="1" as="geometry" />
        </mxCell>
        <mxCell id="bA4vEmtvU-r9QhQ8lOBh-2" value="" style="shape=dataStorage;whiteSpace=wrap;html=1;fixedSize=1;" vertex="1" parent="1">
          <mxGeometry x="634" y="310" width="100" height="80" as="geometry" />
        </mxCell>
        <mxCell id="bA4vEmtvU-r9QhQ8lOBh-8" value="" style="edgeStyle=orthogonalEdgeStyle;rounded=0;orthogonalLoop=1;jettySize=auto;html=1;" edge="1" parent="1" source="bA4vEmtvU-r9QhQ8lOBh-5" target="bA4vEmtvU-r9QhQ8lOBh-7">
          <mxGeometry relative="1" as="geometry" />
        </mxCell>
        <mxCell id="bA4vEmtvU-r9QhQ8lOBh-5" value="" style="shape=dataStorage;whiteSpace=wrap;html=1;fixedSize=1;" vertex="1" parent="1">
          <mxGeometry x="454" y="310" width="100" height="80" as="geometry" />
        </mxCell>
        <mxCell id="bA4vEmtvU-r9QhQ8lOBh-10" value="" style="edgeStyle=orthogonalEdgeStyle;rounded=0;orthogonalLoop=1;jettySize=auto;html=1;" edge="1" parent="1" source="bA4vEmtvU-r9QhQ8lOBh-7" target="bA4vEmtvU-r9QhQ8lOBh-9">
          <mxGeometry relative="1" as="geometry" />
        </mxCell>
        <mxCell id="bA4vEmtvU-r9QhQ8lOBh-7" value="" style="shape=dataStorage;whiteSpace=wrap;html=1;fixedSize=1;" vertex="1" parent="1">
          <mxGeometry x="274" y="310" width="100" height="80" as="geometry" />
        </mxCell>
        <mxCell id="bA4vEmtvU-r9QhQ8lOBh-9" value="" style="shape=dataStorage;whiteSpace=wrap;html=1;fixedSize=1;" vertex="1" parent="1">
          <mxGeometry x="94" y="310" width="100" height="80" as="geometry" />
        </mxCell>
      </root>
    </mxGraphModel>
  </diagram>
</mxfile>
